<?xml version="1.0" encoding="utf-8"?>
<!-- Generator: Adobe Illustrator 19.0.0, SVG Export Plug-In . SVG Version: 6.00 Build 0)  -->
<svg version="1.1" id="Capa_1" xmlns="http://www.w3.org/2000/svg" xmlns:xlink="http://www.w3.org/1999/xlink" x="0px" y="0px"
	 viewBox="0 0 283.5 62.4" style="enable-background:new 0 0 283.5 62.4;" xml:space="preserve">
<style type="text/css">
	.st0{fill:#E30613;}
	.st1{fill:#BE1622;}
	.st2{fill:url(#XMLID_103_);}
	.st3{fill:url(#XMLID_104_);}
</style>
<g>
	<g>
		<path class="st0" d="M118.4,0.6C118,0.2,117.5,0,116.9,0c-0.6,0-1.1,0.2-1.5,0.6c-0.4,0.4-0.6,0.9-0.6,1.5v20.3
			c-2-1.7-4.4-2.5-7.1-2.5c-3.1,0-5.8,1.1-8,3.3c-2.2,2.2-3.3,4.9-3.3,8c0,3.1,1.1,5.8,3.3,8c2.2,2.2,4.9,3.3,8,3.3
			c3.1,0,5.8-1.1,8-3.3c2.2-2.2,3.3-4.8,3.3-8l0-29.1C119,1.5,118.8,1,118.4,0.6z M114.8,31.2c0,1-0.2,1.9-0.6,2.7
			c-0.4,0.9-0.9,1.6-1.5,2.3c-0.6,0.6-1.4,1.2-2.3,1.5c-0.9,0.4-1.8,0.6-2.8,0.6c-1,0-1.9-0.2-2.8-0.6c-0.9-0.4-1.6-0.9-2.2-1.5
			c-0.6-0.6-1.1-1.4-1.5-2.3c-0.4-0.9-0.6-1.8-0.6-2.7c0-1,0.2-1.9,0.6-2.7c0.4-0.9,0.9-1.6,1.5-2.3c0.6-0.6,1.4-1.1,2.2-1.5
			c0.9-0.4,1.8-0.6,2.8-0.6c1,0,1.9,0.2,2.8,0.6c0.9,0.4,1.6,0.9,2.3,1.5l2.1,2.1V31.2z"/>
		<path class="st0" d="M144,26.9c-0.6-1.3-1.4-2.6-2.5-3.6c-2.2-2.2-4.9-3.3-8-3.3c-3.1,0-5.8,1.1-8,3.3c-2.2,2.2-3.3,4.9-3.3,8
			v29.1c0,0.6,0.2,1.1,0.6,1.5c0.4,0.4,0.9,0.6,1.5,0.6c0.6,0,1.1-0.2,1.5-0.6c0.4-0.4,0.6-0.9,0.6-1.5V40.1c2,1.7,4.4,2.5,7.1,2.5
			c1.5,0,3-0.3,4.3-0.8c1.3-0.5,2.6-1.4,3.7-2.5c2.2-2.2,3.3-4.9,3.3-8C144.9,29.7,144.6,28.2,144,26.9z M140.1,34
			c-0.4,0.9-0.9,1.6-1.5,2.3c-0.6,0.6-1.4,1.2-2.3,1.5c-0.9,0.4-1.8,0.6-2.8,0.6c-1,0-1.9-0.2-2.8-0.6c-0.9-0.4-1.6-0.9-2.2-1.5
			l-2.1-2.1v-2.9h0c0-1,0.2-1.9,0.6-2.7c0.4-0.9,0.9-1.6,1.5-2.3c0.6-0.6,1.4-1.1,2.2-1.5c0.9-0.4,1.8-0.6,2.8-0.6
			c1,0,1.9,0.2,2.8,0.6c0.9,0.4,1.6,0.9,2.3,1.5c0.6,0.6,1.1,1.4,1.5,2.3c0.4,0.9,0.6,1.8,0.6,2.7C140.6,32.2,140.5,33.1,140.1,34z"
			/>
		<path id="XMLID_29_" class="st1" d="M122.2,31.2c0-0.4,0-0.9,0.1-1.3l-3.3-3.3l0,4.6c0,0.4,0,0.8-0.1,1.2l3.3,3.3V31.2z"/>
		
			<linearGradient id="XMLID_103_" gradientUnits="userSpaceOnUse" x1="112.1425" y1="23.0482" x2="117.2379" y2="28.1435" gradientTransform="matrix(1 0 0 1 -1.810000e-02 -3.700000e-03)">
			<stop  offset="0" style="stop-color:#E30613"/>
			<stop  offset="1" style="stop-color:#BE1622"/>
		</linearGradient>
		<path id="XMLID_28_" class="st2" d="M110.5,24.7c0.9,0.4,1.6,0.9,2.3,1.5l2.1,2.1v-5.9c-0.8-0.7-1.7-1.2-2.7-1.6L110.5,24.7z"/>
		
			<linearGradient id="XMLID_104_" gradientUnits="userSpaceOnUse" x1="129.9675" y1="39.2022" x2="124.7427" y2="36.1857" gradientTransform="matrix(1 0 0 1 -1.810000e-02 -3.700000e-03)">
			<stop  offset="0" style="stop-color:#E30613"/>
			<stop  offset="1" style="stop-color:#BE1622"/>
		</linearGradient>
		<path id="XMLID_27_" class="st3" d="M130.8,37.7L130.8,37.7c-0.9-0.4-1.6-0.9-2.2-1.5l-2.1-2.1l0,5.9v0v0c0.8,0.7,1.7,1.2,2.6,1.6
			L130.8,37.7z"/>
	</g>
	<g>
		<path id="XMLID_26_" d="M130.9,37.3c0.8,0.3,1.7,0.5,2.6,0.5c0.9,0,1.8-0.2,2.6-0.5c0.8-0.4,1.5-0.8,2.1-1.4
			c0.6-0.6,1.1-1.3,1.4-2.1c0.3-0.8,0.5-1.7,0.5-2.6c0-0.9-0.2-1.8-0.5-2.6c-0.3-0.8-0.8-1.5-1.4-2.1c-0.6-0.6-1.3-1.1-2.1-1.4
			c-0.8-0.3-1.7-0.5-2.6-0.5h0c-0.9,0-1.8,0.2-2.6,0.5c-0.8,0.4-1.5,0.8-2.1,1.4c-0.6,0.6-1.1,1.3-1.4,2.1c-0.3,0.8-0.5,1.7-0.5,2.6
			l0,2.7l1.9,1.9C129.4,36.5,130.1,37,130.9,37.3z"/>
		<path id="XMLID_25_" d="M110.3,25.1c-0.8-0.3-1.7-0.5-2.6-0.5h0c-0.9,0-1.8,0.2-2.6,0.5c-0.8,0.4-1.5,0.8-2.1,1.4
			c-0.6,0.6-1.1,1.3-1.4,2.1c-0.3,0.8-0.5,1.7-0.5,2.6c0,0.9,0.2,1.8,0.5,2.6c0.3,0.8,0.8,1.5,1.4,2.1c0.6,0.6,1.3,1.1,2.1,1.4
			c0.8,0.3,1.7,0.5,2.6,0.5c0.9,0,1.8-0.2,2.6-0.5c0.8-0.4,1.5-0.8,2.1-1.4c0.6-0.6,1.1-1.3,1.4-2.1c0.3-0.8,0.5-1.7,0.5-2.6v-2.7
			l-1.9-1.9C111.8,26,111.1,25.5,110.3,25.1z"/>
		<path id="XMLID_24_" d="M120.6,3.5c-0.4,0-0.8,0-1.2,0v22.9L122,29c0.4-2.3,1.5-4.3,3.2-6.1c2.3-2.3,5.1-3.5,8.3-3.5
			c3.2,0,6,1.2,8.3,3.4c1.1,1.1,2,2.4,2.6,3.8c0.6,1.4,0.9,2.9,0.9,4.5c0,3.3-1.2,6.1-3.5,8.3c-1.2,1.2-2.5,2-3.8,2.6
			c-1.4,0.6-2.9,0.9-4.5,0.9c-2.5,0-4.7-0.7-6.6-2v17.2c12.3-2.8,21.4-13.8,21.4-27C148.3,15.9,135.9,3.5,120.6,3.5z"/>
		<path id="XMLID_23_" d="M121.8,36l-2.5-2.5c-0.4,2.3-1.5,4.4-3.2,6.1c-2.3,2.3-5.1,3.4-8.3,3.4c-3.2,0-6-1.2-8.3-3.4
			c-2.3-2.3-3.4-5.1-3.4-8.3c0-3.2,1.2-6,3.4-8.3c2.3-2.3,5.1-3.4,8.3-3.4c1.5,0,2.9,0.2,4.2,0.7l0,0l0.4,0.2c0.1,0,0.1,0.1,0.2,0.1
			l0.1,0l-0.2,0.4h0l0.2-0.4c0.6,0.3,1.2,0.6,1.8,1V4.3c-12.3,2.9-21.4,13.8-21.4,27c0,15.3,12.4,27.7,27.7,27.7c0.4,0,0.8,0,1.1,0
			V36z"/>
	</g>
</g>
<g>
	<path d="M171.8,15c0-0.3,0.1-0.5,0.3-0.7c0.2-0.2,0.5-0.3,0.7-0.3c0.3,0,0.5,0.1,0.7,0.3c0.2,0.2,0.3,0.4,0.3,0.7v16.3
		c0,2.6-0.9,4.8-2.7,6.6c-1.8,1.8-4,2.7-6.6,2.7c-2.6,0-4.8-0.9-6.6-2.7c-1.8-1.8-2.7-4-2.7-6.6c0-2.6,0.9-4.8,2.7-6.6
		c1.8-1.8,4-2.7,6.6-2.7c2.6,0,4.8,0.9,6.6,2.7l0.6,0.6V15z M171.8,31.2c0-2-0.7-3.7-2.1-5.1c-1.4-1.4-3.1-2.1-5.1-2.1
		c-2,0-3.7,0.7-5.1,2.1c-1.4,1.4-2.1,3.1-2.1,5.1s0.7,3.7,2.1,5.1c1.4,1.4,3.1,2.1,5.1,2.1c2,0,3.7-0.7,5.1-2.1
		C171.1,35,171.8,33.2,171.8,31.2z"/>
	<path d="M191.2,36.5c0.3,0,0.5,0.1,0.7,0.3c0.2,0.2,0.3,0.5,0.3,0.7c0,0.3-0.1,0.5-0.3,0.7c-1.7,1.5-3.8,2.2-6.1,2.2
		c-2.6,0-4.8-0.9-6.6-2.7c-1.8-1.8-2.7-4-2.7-6.6c0-2.6,0.9-4.8,2.7-6.6c1.8-1.8,4-2.7,6.6-2.7c2.6,0,4.8,0.9,6.6,2.7
		c1.8,1.8,2.7,4,2.7,6.6c0,0.3-0.1,0.5-0.3,0.7c-0.2,0.2-0.4,0.3-0.7,0.3h-15.5c0.3,1.7,1,3,2.1,4.1c1.4,1.4,3.1,2.1,5.1,2.1
		c0.9,0,1.8-0.1,2.5-0.4c0.8-0.3,1.5-0.7,2.1-1.3C190.7,36.6,190.9,36.5,191.2,36.5z M193.1,30.2c-0.3-1.7-1-3-2.1-4.1
		c-1.4-1.4-3.1-2.1-5.1-2.1c-2,0-3.7,0.7-5.1,2.1c-1.1,1.1-1.8,2.4-2.1,4.1H193.1z"/>
	<path id="XMLID_18_" d="M199.7,14.2c-0.2-0.2-0.4-0.3-0.7-0.3l0,0c0,0,0,0,0,0c-0.3,0-0.5,0.1-0.7,0.3c-0.2,0.2-0.3,0.4-0.3,0.7v1
		v23.5l0,0c0,0.3,0.1,0.5,0.3,0.7c0.2,0.2,0.4,0.3,0.7,0.3l0,0c0,0,0,0,0,0c0.3,0,0.5-0.1,0.7-0.3c0.2-0.2,0.3-0.4,0.3-0.7v-1V14.9
		v0C200,14.7,199.9,14.4,199.7,14.2z"/>
	<path d="M207.9,47.5c0,0.3-0.1,0.5-0.3,0.7c-0.2,0.2-0.4,0.3-0.7,0.3c-0.3,0-0.5-0.1-0.7-0.3c-0.2-0.2-0.3-0.4-0.3-0.7V31.2
		c0-2.6,0.9-4.8,2.7-6.6c1.8-1.8,4-2.7,6.6-2.7c2.6,0,4.8,0.9,6.6,2.7c1.8,1.8,2.7,4,2.7,6.6c0,2.6-0.9,4.8-2.7,6.6
		c-1.8,1.8-4,2.7-6.6,2.7c-2.6,0-4.8-0.9-6.6-2.7l-0.7-0.6V47.5z M207.9,31.2c0,2,0.7,3.7,2.1,5.1c1.4,1.4,3.1,2.1,5.1,2.1
		c2,0,3.7-0.7,5.1-2.1c1.4-1.4,2.1-3.1,2.1-5.1c0-2-0.7-3.7-2.1-5.1c-1.4-1.4-3.1-2.1-5.1-2.1c-2,0-3.7,0.7-5.1,2.1
		C208.6,27.5,207.9,29.2,207.9,31.2z"/>
	<path d="M245.7,31.2c0,2.6-0.9,4.8-2.7,6.6c-1.8,1.8-4,2.7-6.6,2.7c-2.6,0-4.8-0.9-6.6-2.7c-1.8-1.8-2.7-4-2.7-6.6
		c0-2.6,0.9-4.8,2.7-6.6c1.8-1.8,4-2.7,6.6-2.7c2.6,0,4.8,0.9,6.6,2.7C244.8,26.5,245.7,28.7,245.7,31.2z M236.4,24
		c-2,0-3.7,0.7-5.1,2.1c-1.4,1.4-2.1,3.1-2.1,5.1s0.7,3.7,2.1,5.1c1.4,1.4,3.1,2.1,5.1,2.1c2,0,3.7-0.7,5.1-2.1
		c1.4-1.4,2.1-3.1,2.1-5.1c0-2-0.7-3.7-2.1-5.1C240.1,24.7,238.4,24,236.4,24z"/>
	<path d="M262.1,38.5c0.3,0,0.5,0.1,0.7,0.3c0.2,0.2,0.3,0.4,0.3,0.7c0,0.3-0.1,0.5-0.3,0.7c-0.2,0.2-0.4,0.3-0.7,0.3h-13.8
		c-0.3,0-0.5-0.1-0.7-0.3c-0.2-0.2-0.3-0.4-0.3-0.7c0-0.2,0.1-0.4,0.2-0.6L259.9,24h-11.6c-0.3,0-0.5-0.1-0.7-0.3
		c-0.2-0.2-0.3-0.4-0.3-0.7c0-0.3,0.1-0.5,0.3-0.7c0.2-0.2,0.5-0.3,0.7-0.3h13.8c0.3,0,0.5,0.1,0.7,0.3c0.2,0.2,0.3,0.4,0.3,0.7
		c0,0.3-0.1,0.5-0.2,0.7l-12.4,14.8H262.1z"/>
	<path d="M283.5,31.2c0,2.6-0.9,4.8-2.7,6.6c-1.8,1.8-4,2.7-6.6,2.7c-2.6,0-4.8-0.9-6.6-2.7c-1.8-1.8-2.7-4-2.7-6.6
		c0-2.6,0.9-4.8,2.7-6.6c1.8-1.8,4-2.7,6.6-2.7c2.6,0,4.8,0.9,6.6,2.7C282.6,26.5,283.5,28.7,283.5,31.2z M274.2,24
		c-2,0-3.7,0.7-5.1,2.1c-1.4,1.4-2.1,3.1-2.1,5.1s0.7,3.7,2.1,5.1c1.4,1.4,3.1,2.1,5.1,2.1c2,0,3.7-0.7,5.1-2.1
		c1.4-1.4,2.1-3.1,2.1-5.1c0-2-0.7-3.7-2.1-5.1C277.9,24.7,276.1,24,274.2,24z"/>
</g>
<g id="XMLID_1_">
	<path id="XMLID_60_" class="st0" d="M213.5,43.1c0-0.1,0-0.1,0.1-0.2c0.1-0.1,0.1-0.1,0.2-0.1s0.2,0,0.2,0.1
		c0.1,0.1,0.1,0.1,0.1,0.2v3.4c0,0.6-0.2,1-0.6,1.4c-0.4,0.4-0.9,0.6-1.5,0.6c-0.6,0-1.1-0.2-1.5-0.6c-0.4-0.4-0.6-0.9-0.6-1.4
		s0.2-1,0.6-1.4c0.4-0.4,0.9-0.6,1.5-0.6c0.6,0,1.1,0.2,1.5,0.6c0,0,0,0,0,0V43.1z M213.5,46.5c0-0.4-0.1-0.7-0.4-1
		c-0.3-0.3-0.6-0.4-1-0.4c-0.4,0-0.8,0.1-1,0.4c-0.3,0.3-0.4,0.6-0.4,1c0,0.4,0.1,0.7,0.4,1c0.3,0.3,0.6,0.4,1,0.4
		c0.4,0,0.8-0.1,1-0.4C213.4,47.3,213.5,46.9,213.5,46.5z"/>
	<path id="XMLID_63_" class="st0" d="M215.7,43.7c0,0.1,0,0.2-0.1,0.3s-0.2,0.1-0.3,0.1s-0.2,0-0.3-0.1c-0.1-0.1-0.1-0.2-0.1-0.3
		s0-0.2,0.1-0.3c0.1-0.1,0.2-0.1,0.3-0.1s0.2,0,0.3,0.1S215.7,43.6,215.7,43.7z M215,44.8c0-0.1,0-0.1,0.1-0.2
		c0.1-0.1,0.1-0.1,0.2-0.1s0.2,0,0.2,0.1c0.1,0.1,0.1,0.1,0.1,0.2v3.4c0,0.1,0,0.1-0.1,0.2c-0.1,0.1-0.1,0.1-0.2,0.1s-0.2,0-0.2-0.1
		s-0.1-0.1-0.1-0.2V44.8z"/>
	<path id="XMLID_66_" class="st0" d="M217.2,46.5c-0.2-0.1-0.4-0.2-0.5-0.3c-0.2-0.2-0.3-0.4-0.3-0.6s0.1-0.4,0.3-0.6
		c0.4-0.4,0.8-0.5,1.4-0.5c0.6,0,1.1,0.2,1.6,0.7c0,0,0.1,0.1,0.1,0.2c0,0.1,0,0.1-0.1,0.2s-0.1,0.1-0.2,0.1s-0.1,0-0.2-0.1
		s-0.1-0.1-0.1-0.1c-0.3-0.3-0.6-0.4-1-0.4c-0.4,0-0.7,0.1-1,0.4c-0.1,0.1-0.1,0.2-0.1,0.2c0,0.1,0.1,0.2,0.2,0.2l1.8,0.6
		c0.2,0.1,0.4,0.2,0.5,0.3c0.2,0.2,0.3,0.4,0.3,0.6c0,0.2-0.1,0.4-0.3,0.6c-0.4,0.4-0.8,0.5-1.4,0.5c-0.6,0-1.1-0.2-1.6-0.7
		c0-0.1-0.1-0.1-0.1-0.2c0-0.1,0-0.1,0.1-0.2c0.1-0.1,0.1-0.1,0.2-0.1s0.1,0,0.2,0.1c0,0,0.1,0.1,0.1,0.1c0.3,0.3,0.6,0.4,1,0.4
		c0.4,0,0.7-0.1,1-0.4c0.1-0.1,0.1-0.2,0.1-0.2c0-0.1-0.1-0.2-0.2-0.2L217.2,46.5z"/>
	<path id="XMLID_68_" class="st0" d="M223.6,47.6c0.1,0,0.2,0,0.2,0.1c0.1,0.1,0.1,0.1,0.1,0.2c0,0.1,0,0.1-0.1,0.2
		c-0.4,0.3-0.8,0.5-1.3,0.5c-0.6,0-1.1-0.2-1.5-0.6c-0.4-0.4-0.6-0.9-0.6-1.4s0.2-1,0.6-1.4c0.4-0.4,0.9-0.6,1.5-0.6
		c0.6,0,1.1,0.2,1.5,0.6c0.4,0.4,0.6,0.9,0.6,1.4c0,0.1,0,0.1-0.1,0.2c-0.1,0.1-0.1,0.1-0.2,0.1H221c0.1,0.3,0.2,0.5,0.4,0.7
		c0.3,0.3,0.6,0.4,1,0.4c0.4,0,0.7-0.1,1-0.3C223.4,47.6,223.5,47.6,223.6,47.6z M223.9,46.2c-0.1-0.3-0.2-0.5-0.4-0.7
		c-0.3-0.3-0.6-0.4-1-0.4c-0.4,0-0.8,0.1-1,0.4c-0.2,0.2-0.4,0.5-0.4,0.7H223.9z"/>
	<path id="XMLID_71_" class="st0" d="M225.1,44.8c0-0.1,0-0.1,0.1-0.2c0.1-0.1,0.1-0.1,0.2-0.1s0.2,0,0.2,0.1
		c0.1,0.1,0.1,0.1,0.1,0.2V45c0.4-0.3,0.8-0.5,1.3-0.5c0.5,0,1,0.2,1.4,0.5c0.4,0.4,0.6,0.8,0.6,1.3v1.9c0,0.1,0,0.1-0.1,0.2
		s-0.1,0.1-0.2,0.1s-0.2,0-0.2-0.1s-0.1-0.1-0.1-0.2v-1.9c0-0.4-0.1-0.7-0.4-0.9c-0.3-0.3-0.6-0.4-0.9-0.4c-0.4,0-0.7,0.1-0.9,0.4
		c-0.3,0.3-0.4,0.6-0.4,0.9v1.9c0,0.1,0,0.1-0.1,0.2s-0.1,0.1-0.2,0.1s-0.2,0-0.2-0.1s-0.1-0.1-0.1-0.2V44.8z M227.2,43.8
		c-0.2,0.2-0.5,0.3-0.8,0.3c-0.3,0-0.6-0.1-0.8-0.3c-0.1-0.1-0.1-0.1-0.1-0.2c0-0.1,0-0.1,0.1-0.2c0.1-0.1,0.1-0.1,0.2-0.1
		c0.1,0,0.1,0,0.2,0.1c0.1,0.1,0.3,0.2,0.4,0.2c0.1,0,0.3,0,0.4-0.1c0.2-0.2,0.5-0.3,0.8-0.3c0.3,0,0.6,0.1,0.8,0.3
		c0.1,0.1,0.1,0.1,0.1,0.2c0,0.1,0,0.1-0.1,0.2s-0.1,0.1-0.2,0.1c-0.1,0-0.1,0-0.2-0.1c-0.1-0.1-0.3-0.2-0.4-0.2
		C227.5,43.7,227.3,43.7,227.2,43.8z"/>
	<path id="XMLID_74_" class="st0" d="M233.6,46.5c0,0.6-0.2,1-0.6,1.4c-0.4,0.4-0.9,0.6-1.5,0.6c-0.6,0-1.1-0.2-1.5-0.6
		c-0.4-0.4-0.6-0.9-0.6-1.4s0.2-1,0.6-1.4c0.4-0.4,0.9-0.6,1.5-0.6c0.6,0,1.1,0.2,1.5,0.6C233.4,45.5,233.6,46,233.6,46.5z
		 M231.6,45.1c-0.4,0-0.8,0.1-1,0.4c-0.3,0.3-0.4,0.6-0.4,1c0,0.4,0.1,0.7,0.4,1c0.3,0.3,0.6,0.4,1,0.4c0.4,0,0.8-0.1,1-0.4
		c0.3-0.3,0.4-0.6,0.4-1c0-0.4-0.1-0.7-0.4-1C232.3,45.2,232,45.1,231.6,45.1z"/>
	<path id="XMLID_77_" class="st0" d="M237.3,45.8c0,0.1,0,0.2-0.1,0.3c-0.1,0.1-0.2,0.1-0.3,0.1c-0.1,0-0.2,0-0.3-0.1
		c-0.1-0.1-0.1-0.2-0.1-0.3s0-0.2,0.1-0.3c0.1-0.1,0.2-0.1,0.3-0.1c0.1,0,0.2,0,0.3,0.1C237.3,45.6,237.3,45.7,237.3,45.8z"/>
	<path id="XMLID_79_" class="st0" d="M242.6,44.6c0.1-0.1,0.1-0.1,0.2-0.1s0.2,0,0.2,0.1c0,0,0.1,0.1,0.1,0.1l0.9,2.6l0.9-2.7
		c0,0,0-0.1,0.1-0.1c0.1-0.1,0.1-0.1,0.2-0.1s0.2,0,0.2,0.1c0.1,0.1,0.1,0.1,0.1,0.2c0,0,0,0.1,0,0.1l-1.2,3.4c0,0,0,0.1-0.1,0.1
		c-0.1,0.1-0.1,0.1-0.2,0.1s-0.2,0-0.2-0.1c0,0-0.1-0.1-0.1-0.1l-0.9-2.6l-0.9,2.6c0,0,0,0.1-0.1,0.1c-0.1,0.1-0.1,0.1-0.2,0.1
		s-0.2,0-0.2-0.1c0,0-0.1-0.1-0.1-0.1l-1.2-3.4c0,0,0-0.1,0-0.1c0-0.1,0-0.1,0.1-0.2c0.1-0.1,0.1-0.1,0.2-0.1s0.2,0,0.2,0.1
		c0,0,0,0.1,0.1,0.1l0.9,2.7l0.9-2.6C242.5,44.7,242.5,44.6,242.6,44.6z"/>
	<path id="XMLID_81_" class="st0" d="M249.2,47.6c0.1,0,0.2,0,0.2,0.1c0.1,0.1,0.1,0.1,0.1,0.2c0,0.1,0,0.1-0.1,0.2
		c-0.4,0.3-0.8,0.5-1.3,0.5c-0.6,0-1.1-0.2-1.5-0.6c-0.4-0.4-0.6-0.9-0.6-1.4s0.2-1,0.6-1.4c0.4-0.4,0.9-0.6,1.5-0.6
		c0.6,0,1.1,0.2,1.5,0.6c0.4,0.4,0.6,0.9,0.6,1.4c0,0.1,0,0.1-0.1,0.2c-0.1,0.1-0.1,0.1-0.2,0.1h-3.2c0.1,0.3,0.2,0.5,0.4,0.7
		c0.3,0.3,0.6,0.4,1,0.4c0.4,0,0.7-0.1,1-0.3C249.1,47.6,249.1,47.6,249.2,47.6z M249.5,46.2c-0.1-0.3-0.2-0.5-0.4-0.7
		c-0.3-0.3-0.6-0.4-1-0.4c-0.4,0-0.8,0.1-1,0.4c-0.2,0.2-0.4,0.5-0.4,0.7H249.5z"/>
	<path id="XMLID_84_" class="st0" d="M251.3,45.1C251.3,45.1,251.3,45.1,251.3,45.1c0.4-0.4,0.9-0.6,1.5-0.6c0.6,0,1.1,0.2,1.5,0.6
		c0.4,0.4,0.6,0.9,0.6,1.4s-0.2,1-0.6,1.4c-0.4,0.4-0.9,0.6-1.5,0.6c-0.6,0-1.1-0.2-1.5-0.6c-0.4-0.4-0.6-0.9-0.6-1.4v-3.4
		c0-0.1,0-0.1,0.1-0.2c0.1-0.1,0.1-0.1,0.2-0.1s0.2,0,0.2,0.1c0.1,0.1,0.1,0.1,0.1,0.2V45.1z M252.8,48c0.4,0,0.8-0.1,1-0.4
		c0.3-0.3,0.4-0.6,0.4-1c0-0.4-0.1-0.7-0.4-1c-0.3-0.3-0.6-0.4-1-0.4c-0.4,0-0.8,0.1-1,0.4c-0.3,0.3-0.4,0.6-0.4,1
		c0,0.4,0.1,0.7,0.4,1C252,47.8,252.4,48,252.8,48z"/>
	<path id="XMLID_87_" class="st0" d="M258.5,45.8c0,0.1,0,0.2-0.1,0.3c-0.1,0.1-0.2,0.1-0.3,0.1c-0.1,0-0.2,0-0.3-0.1
		c-0.1-0.1-0.1-0.2-0.1-0.3s0-0.2,0.1-0.3c0.1-0.1,0.2-0.1,0.3-0.1c0.1,0,0.2,0,0.3,0.1C258.5,45.6,258.5,45.7,258.5,45.8z"/>
	<path id="XMLID_89_" class="st0" d="M261.9,48.2c0,0.1,0,0.1-0.1,0.2s-0.1,0.1-0.2,0.1s-0.2,0-0.2-0.1s-0.1-0.1-0.1-0.2v-3.4
		c0-0.1,0-0.1,0.1-0.2c0.1-0.1,0.1-0.1,0.2-0.1s0.2,0,0.2,0.1c0.1,0.1,0.1,0.1,0.1,0.2v0.1c0.3-0.2,0.6-0.4,1-0.4
		c0.4,0,0.8,0.2,1.1,0.5c0.1,0.1,0.1,0.1,0.2,0.2c0.1-0.1,0.1-0.1,0.2-0.2c0.3-0.3,0.7-0.5,1.1-0.5c0.4,0,0.8,0.2,1.1,0.5
		c0.3,0.3,0.5,0.7,0.5,1.1v2.1c0,0.1,0,0.1-0.1,0.2c-0.1,0.1-0.1,0.1-0.2,0.1s-0.2,0-0.2-0.1s-0.1-0.1-0.1-0.2v-2.1
		c0-0.3-0.1-0.5-0.3-0.7c-0.2-0.2-0.4-0.3-0.7-0.3c-0.3,0-0.5,0.1-0.7,0.3c-0.2,0.2-0.3,0.4-0.3,0.7v2.1c0,0.1,0,0.1-0.1,0.2
		s-0.1,0.1-0.2,0.1s-0.2,0-0.2-0.1s-0.1-0.1-0.1-0.2v-2.1c0-0.3-0.1-0.5-0.3-0.7c-0.2-0.2-0.4-0.3-0.7-0.3c-0.3,0-0.5,0.1-0.7,0.3
		c-0.2,0.2-0.3,0.4-0.3,0.7V48.2z"/>
	<path id="XMLID_91_" class="st0" d="M271,47.6c0.1,0,0.2,0,0.2,0.1c0.1,0.1,0.1,0.1,0.1,0.2c0,0.1,0,0.1-0.1,0.2
		c-0.4,0.3-0.8,0.5-1.3,0.5c-0.6,0-1.1-0.2-1.5-0.6c-0.4-0.4-0.6-0.9-0.6-1.4s0.2-1,0.6-1.4c0.4-0.4,0.9-0.6,1.5-0.6
		c0.6,0,1.1,0.2,1.5,0.6c0.4,0.4,0.6,0.9,0.6,1.4c0,0.1,0,0.1-0.1,0.2c-0.1,0.1-0.1,0.1-0.2,0.1h-3.2c0.1,0.3,0.2,0.5,0.4,0.7
		c0.3,0.3,0.6,0.4,1,0.4c0.4,0,0.7-0.1,1-0.3C270.9,47.6,270.9,47.6,271,47.6z M271.3,46.2c-0.1-0.3-0.2-0.5-0.4-0.7
		c-0.3-0.3-0.6-0.4-1-0.4c-0.4,0-0.8,0.1-1,0.4c-0.2,0.2-0.4,0.5-0.4,0.7H271.3z"/>
	<path id="XMLID_94_" class="st0" d="M276.1,43.1c0-0.1,0-0.1,0.1-0.2c0.1-0.1,0.1-0.1,0.2-0.1s0.2,0,0.2,0.1
		c0.1,0.1,0.1,0.1,0.1,0.2v3.4c0,0.6-0.2,1-0.6,1.4c-0.4,0.4-0.9,0.6-1.5,0.6c-0.6,0-1.1-0.2-1.5-0.6c-0.4-0.4-0.6-0.9-0.6-1.4
		s0.2-1,0.6-1.4c0.4-0.4,0.9-0.6,1.5-0.6c0.6,0,1.1,0.2,1.5,0.6c0,0,0,0,0,0V43.1z M276.1,46.5c0-0.4-0.1-0.7-0.4-1
		c-0.3-0.3-0.6-0.4-1-0.4c-0.4,0-0.8,0.1-1,0.4c-0.3,0.3-0.4,0.6-0.4,1c0,0.4,0.1,0.7,0.4,1c0.3,0.3,0.6,0.4,1,0.4
		c0.4,0,0.8-0.1,1-0.4C275.9,47.3,276.1,46.9,276.1,46.5z"/>
	<path id="XMLID_97_" class="st0" d="M278.2,43.7c0,0.1,0,0.2-0.1,0.3s-0.2,0.1-0.3,0.1s-0.2,0-0.3-0.1c-0.1-0.1-0.1-0.2-0.1-0.3
		s0-0.2,0.1-0.3c0.1-0.1,0.2-0.1,0.3-0.1s0.2,0,0.3,0.1S278.2,43.6,278.2,43.7z M277.5,44.8c0-0.1,0-0.1,0.1-0.2
		c0.1-0.1,0.1-0.1,0.2-0.1s0.2,0,0.2,0.1c0.1,0.1,0.1,0.1,0.1,0.2v3.4c0,0.1,0,0.1-0.1,0.2c-0.1,0.1-0.1,0.1-0.2,0.1s-0.2,0-0.2-0.1
		s-0.1-0.1-0.1-0.2V44.8z"/>
	<path id="XMLID_100_" class="st0" d="M282.6,47.9c-0.4,0.4-0.9,0.6-1.5,0.6c-0.6,0-1.1-0.2-1.5-0.6c-0.4-0.4-0.6-0.9-0.6-1.4
		s0.2-1,0.6-1.4c0.4-0.4,0.9-0.6,1.5-0.6c0.6,0,1.1,0.2,1.5,0.6c0.4,0.4,0.6,0.9,0.6,1.4v1.7c0,0.1,0,0.1-0.1,0.2s-0.1,0.1-0.2,0.1
		s-0.2,0-0.2-0.1s-0.1-0.1-0.1-0.2V47.9z M281.1,45.1c-0.4,0-0.8,0.1-1,0.4c-0.3,0.3-0.4,0.6-0.4,1c0,0.4,0.1,0.7,0.4,1
		c0.3,0.3,0.6,0.4,1,0.4c0.4,0,0.8-0.1,1-0.4c0.3-0.3,0.4-0.6,0.4-1c0-0.4-0.1-0.7-0.4-1C281.8,45.2,281.5,45.1,281.1,45.1z"/>
</g>
<g>
	<path d="M2.1,47.5c0,0.3-0.1,0.5-0.3,0.7c-0.2,0.2-0.4,0.3-0.7,0.3s-0.5-0.1-0.7-0.3C0.1,48,0,47.8,0,47.5V31.2
		c0-2.6,0.9-4.8,2.7-6.6c1.8-1.8,4-2.7,6.6-2.7c2.6,0,4.8,0.9,6.6,2.7c1.8,1.8,2.7,4,2.7,6.6s-0.9,4.8-2.7,6.6
		c-1.8,1.8-4,2.7-6.6,2.7c-2.6,0-4.8-0.9-6.6-2.7l-0.7-0.6V47.5z M2.1,31.2c0,2,0.7,3.7,2.1,5.1c1.4,1.4,3.1,2.1,5.1,2.1
		c2,0,3.7-0.7,5.1-2.1c1.4-1.4,2.1-3.1,2.1-5.1c0-2-0.7-3.7-2.1-5.1C13,24.7,11.3,24,9.3,24c-2,0-3.7,0.7-5.1,2.1
		C2.8,27.5,2.1,29.2,2.1,31.2z"/>
	<path d="M37.8,37.2c-2.2,2.3-4.7,3.4-7.2,3.4c-2.6,0-4.8-0.9-6.6-2.7c-1.8-1.8-2.7-4-2.7-6.6s0.9-4.8,2.7-6.6
		c1.8-1.8,4-2.7,6.6-2.7c2.6,0,4.8,0.9,6.6,2.7c1.8,1.8,2.7,4,2.7,6.6v8.3c0,0.3-0.1,0.5-0.3,0.7c-0.2,0.2-0.4,0.3-0.7,0.3
		c-0.3,0-0.5-0.1-0.7-0.3c-0.2-0.2-0.3-0.4-0.3-0.7V37.2z M30.6,24c-2,0-3.7,0.7-5.1,2.1c-1.4,1.4-2.1,3.1-2.1,5.1
		c0,2,0.7,3.7,2.1,5.1c1.4,1.4,3.1,2.1,5.1,2.1c2,0,3.7-0.7,5.1-2.1c1.4-1.4,2.1-3.1,2.1-5.1c0-2-0.7-3.7-2.1-5.1
		C34.3,24.7,32.6,24,30.6,24z"/>
	<path d="M51.9,40.3c-0.2,0.2-0.4,0.2-0.7,0.2c-0.3,0-0.5-0.1-0.7-0.3c-0.1-0.1-0.1-0.2-0.2-0.2l-7.6-16.7c0-0.1-0.1-0.2-0.1-0.4
		c0-0.3,0.1-0.5,0.3-0.7c0.2-0.2,0.4-0.3,0.7-0.3c0.3,0,0.5,0.1,0.7,0.3c0.1,0.1,0.1,0.2,0.2,0.3L51.2,37l6.7-14.5
		c0-0.1,0.1-0.2,0.2-0.2c0.2-0.2,0.5-0.3,0.7-0.3c0.3,0,0.5,0.1,0.7,0.3c0.2,0.2,0.3,0.4,0.3,0.7c0,0.1,0,0.3-0.1,0.4L52.1,40
		C52.1,40.1,52,40.2,51.9,40.3z"/>
	<path d="M77.1,36.5c0.3,0,0.5,0.1,0.7,0.3c0.2,0.2,0.3,0.5,0.3,0.7c0,0.3-0.1,0.5-0.3,0.7c-1.7,1.5-3.8,2.2-6.1,2.2
		c-2.6,0-4.8-0.9-6.6-2.7c-1.8-1.8-2.7-4-2.7-6.6s0.9-4.8,2.7-6.6c1.8-1.8,4-2.7,6.6-2.7c2.6,0,4.8,0.9,6.6,2.7
		c1.8,1.8,2.7,4,2.7,6.6c0,0.3-0.1,0.5-0.3,0.7c-0.2,0.2-0.4,0.3-0.7,0.3H64.6c0.3,1.7,1,3,2.1,4.1c1.4,1.4,3.1,2.1,5.1,2.1
		c0.9,0,1.8-0.1,2.5-0.4c0.8-0.3,1.5-0.7,2.1-1.3C76.7,36.6,76.9,36.5,77.1,36.5z M79,30.2c-0.3-1.7-1-3-2.1-4.1
		c-1.4-1.4-3.1-2.1-5.1-2.1c-2,0-3.7,0.7-5.1,2.1c-1.1,1.1-1.8,2.4-2.1,4.1H79z"/>
	<path id="XMLID_2_" d="M85.7,14.2c-0.2-0.2-0.4-0.3-0.7-0.3l0,0c0,0,0,0,0,0c-0.3,0-0.5,0.1-0.7,0.3c-0.2,0.2-0.3,0.4-0.3,0.7v1
		v23.5c0,0.3,0.1,0.5,0.3,0.7c0.2,0.2,0.4,0.3,0.7,0.3l0,0c0,0,0,0,0,0c0.3,0,0.5-0.1,0.7-0.3c0.2-0.2,0.3-0.4,0.3-0.7v-1V14.9
		C86,14.7,85.9,14.4,85.7,14.2z"/>
</g>
</svg>
